<svg width="826" height="1066" viewBox="0 0 826 1066" fill="none" xmlns="http://www.w3.org/2000/svg">
<g opacity="0.03">
<path fill-rule="evenodd" clip-rule="evenodd" d="M111.197 -6.9986C124.724 -7.03575 131.2 -6.32976 125.543 -5.51229C119.887 -4.65767 108.861 -4.65767 100.95 -5.47514C93.0392 -6.2926 97.671 -6.96144 111.197 -6.9986ZM-9.7196 163.74C-4.51404 165.004 -3.5303 176.485 -3.28436 309.547L-4.59601 238.947C-5.53876 189.007 -7.38324 167.456 -10.9083 165.264C-14.406 163.158 -14.0098 162.65 -9.7196 163.74ZM-342.835 227.8C-341.975 235.975 -341.975 250.169 -342.835 259.384C-343.696 268.562 -344.393 261.911 -344.393 244.521C-344.393 227.131 -343.696 219.625 -342.835 227.8ZM-346.852 608.665C-346.237 675.065 -346.237 784.606 -346.852 852.047C-347.467 919.488 -348 865.126 -348 731.285C-348 597.443 -347.467 542.227 -346.852 608.665ZM222.728 571.507C223.384 571.507 223.957 571.916 223.957 572.436C223.998 572.956 214.325 581.726 180.878 610.523L201.209 591.015C212.399 580.277 222.072 571.507 222.728 571.507ZM825.345 842.758C826.206 851.973 826.206 868.693 825.386 879.915C824.566 891.137 823.869 883.631 823.869 863.194C823.828 842.758 824.525 833.542 825.345 842.758Z" fill="white" fill-opacity="0.22"/>
<path d="M481.531 171.766C481.121 169.537 482.31 166.601 484.195 165.264C486.081 163.889 551.417 163.183 771.116 164.521L629.705 165.635C523.954 166.453 487.515 167.865 485.302 171.246C483.307 174.169 482.05 174.343 481.531 171.766Z" fill="white" fill-opacity="0.31"/>
<path d="M809.031 193.429C805.096 186.778 794.931 178.083 786.487 174.07C778.044 170.094 772.961 166.75 775.215 166.676C777.47 166.601 785.299 169.871 792.636 173.921C800.055 178.083 809.523 188.339 814.073 197.145C821.615 211.859 822.107 220.257 820.59 424.735L818.418 315.12C816.491 220.294 815.22 203.87 809.031 193.429Z" fill="white" fill-opacity="0.31"/>
<path d="M485.22 298.399C484.482 320.88 483.867 303.304 483.867 259.384C483.867 215.464 484.482 197.071 485.22 218.511C485.917 239.988 485.917 275.919 485.22 298.399Z" fill="white" fill-opacity="0.31"/>
<path d="M-236.183 512.055C-236.961 531.489 -237.576 517.257 -237.576 480.471C-237.576 443.685 -236.961 427.819 -236.224 445.172C-235.445 462.561 -235.445 492.659 -236.183 512.055Z" fill="white" fill-opacity="0.31"/>
<path d="M-273.073 774.016C-273.687 835.326 -274.22 786.835 -274.22 666.259C-274.22 545.683 -273.728 495.52 -273.073 554.786C-272.458 614.053 -272.458 712.706 -273.073 774.016Z" fill="white" fill-opacity="0.31"/>
<path d="M-236.306 606.807C-237.248 612.938 -238.027 608.739 -238.027 597.518C-238.027 586.296 -237.248 581.28 -236.306 586.37C-235.363 591.498 -235.363 600.676 -236.306 606.807Z" fill="white" fill-opacity="0.31"/>
<path d="M-236.306 647.68C-237.248 653.811 -238.027 649.612 -238.027 638.391C-238.027 627.169 -237.248 622.153 -236.306 627.244C-235.363 632.371 -235.363 641.549 -236.306 647.68Z" fill="white" fill-opacity="0.31"/>
<path d="M-236.183 822.321C-236.879 852.976 -237.453 829.566 -237.453 770.3C-237.453 711.034 -236.879 685.953 -236.183 714.564C-235.486 743.175 -235.486 791.666 -236.183 822.321Z" fill="white" fill-opacity="0.31"/>
<path d="M-120.389 1023.75C-126.046 1024.61 -137.072 1024.61 -144.983 1023.79C-152.893 1022.97 -148.262 1022.3 -134.735 1022.27C-121.209 1022.23 -114.774 1022.93 -120.389 1023.75Z" fill="white" fill-opacity="0.31"/>
<path d="M-53.0448 1023.71C-57.6765 1024.61 -66.899 1024.64 -73.5392 1023.79C-80.1384 1022.93 -76.3674 1022.19 -65.0545 1022.19C-53.7826 1022.15 -48.3721 1022.86 -53.0448 1023.71Z" fill="white" fill-opacity="0.31"/>
<path d="M305.894 -5.36377C284.457 -4.69493 250.354 -4.69493 230.065 -5.36377C209.776 -6.06976 227.278 -6.58997 269.004 -6.58997C310.731 -6.58997 327.331 -6.06976 305.894 -5.36377Z" fill="white" fill-opacity="0.32"/>
<path d="M71.1924 73.596C70.4137 88.9421 69.7988 78.0549 69.7578 49.4436C69.7578 20.8323 70.4137 8.27305 71.1924 21.5755C71.9712 34.8779 71.9712 58.25 71.1924 73.596Z" fill="white" fill-opacity="0.32"/>
<path d="M407.259 107.038C406.399 116.216 405.702 110.382 405.661 94.0327C405.661 77.6833 406.358 70.1775 407.259 77.3118C408.12 84.4832 408.12 97.8599 407.259 107.038Z" fill="white" fill-opacity="0.32"/>
<path d="M71.1515 173.921C70.2907 183.099 69.5939 176.448 69.5939 159.058C69.5939 141.669 70.2907 134.163 71.1515 142.337C72.0122 150.512 72.0122 164.743 71.1515 173.921Z" fill="white" fill-opacity="0.32"/>
<path d="M-73.252 165.561C-107.068 166.155 -164.247 166.193 -200.317 165.561C-236.387 164.929 -208.72 164.446 -138.834 164.409C-68.9482 164.409 -39.4362 164.929 -73.252 165.561Z" fill="white" fill-opacity="0.32"/>
<path d="M71.1924 333.699C70.4547 351.089 69.8398 337.675 69.8398 303.973C69.8398 270.271 70.4547 256.04 71.1924 272.389C71.9712 288.738 71.9712 316.309 71.1924 333.699Z" fill="white" fill-opacity="0.32"/>
<path d="M71.1508 229.658C70.29 238.836 69.5932 233.002 69.5522 216.653C69.5522 200.303 70.249 192.76 71.1508 199.932C72.0115 207.103 72.0115 220.48 71.1508 229.658Z" fill="white" fill-opacity="0.49"/>
<path d="M-342.754 396.867C-343.492 420.35 -344.066 401.995 -344.066 355.993C-344.066 309.992 -343.492 290.782 -342.754 313.262C-342.057 335.743 -342.057 373.383 -342.754 396.867Z" fill="white" fill-opacity="0.49"/>
<path d="M755.745 766.584C755.13 831.982 754.598 779.329 754.598 649.538C754.598 519.747 755.13 466.277 755.745 530.634C756.36 594.991 756.36 701.187 755.745 766.584Z" fill="white" fill-opacity="0.49"/>
<path d="M486.244 467.578C485.096 467.578 474.972 459.143 463.7 448.887C452.428 438.632 444.722 430.234 446.567 430.271C448.452 430.271 458.577 438.706 469.111 448.925C479.686 459.18 487.351 467.578 486.244 467.578Z" fill="white" fill-opacity="0.49"/>
<path d="M825.426 729.427C824.77 784.606 824.279 741.131 824.279 632.817C824.279 524.503 824.77 479.357 825.426 532.492C826.082 585.627 826.082 674.248 825.426 729.427Z" fill="white" fill-opacity="0.49"/>
<path d="M156.284 588.228L176.615 568.72C187.805 557.982 197.478 549.213 198.134 549.213C198.79 549.213 199.364 549.621 199.364 550.142C199.405 550.662 189.731 559.431 156.284 588.228Z" fill="white" fill-opacity="0.49"/>
<path d="M260.765 610.523C256.693 610.523 254.534 606.485 254.289 598.409C253.92 587.076 254.002 587.002 255.313 597.48C256.092 603.649 258.551 608.665 260.806 608.665C263.06 608.665 265.724 605.729 266.708 602.162C267.992 597.48 268.32 597.79 267.692 603.091C267.241 607.179 264.085 610.523 260.765 610.523Z" fill="white" fill-opacity="0.49"/>
<path d="M550.719 649.538C549.859 658.753 549.162 652.882 549.121 636.533C549.121 620.184 549.818 612.641 550.719 619.812C551.58 626.983 551.58 640.323 550.719 649.538Z" fill="white" fill-opacity="0.49"/>
<path d="M-18.9426 709.027C-19.5164 709.064 -28.288 701.113 -38.4123 691.378L-56.8572 673.691L-37.3466 690.411C-26.6075 699.627 -17.8359 707.541 -17.8769 708.061C-17.8769 708.581 -18.3687 709.027 -18.9426 709.027Z" fill="white" fill-opacity="0.49"/>
<path d="M825.385 965.377C824.606 978.643 823.951 968.61 823.951 943.083C823.951 917.518 824.606 906.668 825.385 918.93C826.205 931.192 826.205 952.075 825.385 965.377Z" fill="white" fill-opacity="0.49"/>
<path d="M510.059 439.598C504.935 435.511 493.377 425.664 484.277 417.675C472.677 407.457 475.587 408.943 494.196 422.691C508.706 433.43 520.306 443.277 519.937 444.614C519.609 445.952 515.142 443.685 510.059 439.598Z" fill="white" fill-opacity="0.52"/>
<path d="M714.757 759.153C714.142 824.55 713.609 772.715 713.609 643.965C713.609 515.214 714.142 461.707 714.757 525.06C715.372 588.414 715.372 693.756 714.757 759.153Z" fill="white" fill-opacity="0.52"/>
<path d="M575.395 528.628C574.821 529.594 569.329 521.233 563.18 510.049C556.991 498.901 552.851 489.761 553.958 489.761C555.024 489.761 560.557 498.121 566.173 508.34C571.829 518.558 575.969 527.699 575.395 528.628Z" fill="white" fill-opacity="0.52"/>
<path d="M603.472 697.843C598.759 690.857 597.365 678.855 597.816 649.538L598.431 610.523L600.89 651.396C602.243 673.876 604.825 695.614 606.588 699.701C608.432 704.048 607.161 703.268 603.472 697.843Z" fill="white" fill-opacity="0.52"/>
<path d="M307.37 920.863C306.96 870.811 307.37 827.783 308.23 825.182C309.091 822.581 314.911 820.723 332.537 821.578L309.993 824.179L308.107 1011.82L307.37 920.863Z" fill="white" fill-opacity="0.52"/>
<path d="M568.222 823.25C535.513 823.881 480.178 823.881 445.256 823.25C410.292 822.618 437.058 822.098 504.69 822.098C572.321 822.098 600.89 822.618 568.222 823.25Z" fill="white" fill-opacity="0.52"/>
<path d="M672.743 901.206C663.726 901.987 650.814 901.987 644.051 901.169C637.288 900.352 644.666 899.683 660.447 899.72C676.228 899.72 681.761 900.389 672.743 901.206Z" fill="white" fill-opacity="0.52"/>
<path d="M299.746 -1.64792C265.93 -1.01624 211.497 -1.01624 178.829 -1.64792C146.161 -2.2796 173.828 -2.7998 240.312 -2.7998C306.837 -2.7998 333.561 -2.2796 299.746 -1.64792Z" fill="white" fill-opacity="0.74"/>
<path d="M407.341 289.11C406.644 320.805 406.071 295.724 406.071 233.374C406.071 171.023 406.644 145.124 407.341 175.779C408.038 206.434 408.038 257.414 407.341 289.11Z" fill="white" fill-opacity="0.74"/>
<path d="M-218.762 169.24C-231.182 169.946 -253.316 169.983 -267.949 169.24C-282.623 168.534 -272.458 167.902 -245.405 167.902C-218.352 167.902 -206.343 168.496 -218.762 169.24Z" fill="white" fill-opacity="0.74"/>
<path d="M-46.6094 169.24C-63.4968 169.946 -89.3607 169.946 -103.994 169.24C-118.627 168.534 -104.813 167.939 -73.2521 167.939C-41.6908 167.976 -29.681 168.534 -46.6094 169.24Z" fill="white" fill-opacity="0.74"/>
<path d="M-6.68631 242.663C-7.54709 252.881 -8.24393 245.338 -8.24393 225.942C-8.24393 206.546 -7.54709 198.185 -6.68631 207.363C-5.86655 216.541 -5.86655 232.445 -6.68631 242.663Z" fill="white" fill-opacity="0.74"/>
<path d="M255.6 413.588C254.699 421.762 253.961 416.746 253.961 402.44C253.92 388.135 254.658 381.446 255.559 387.577C256.461 393.708 256.461 405.413 255.6 413.588Z" fill="white" fill-opacity="0.79"/>
<path d="M267.815 413.588C266.872 419.904 266.093 416.672 266.093 406.156C266.052 395.938 266.79 390.922 267.774 395.009C268.758 399.096 268.758 407.457 267.815 413.588Z" fill="white" fill-opacity="0.79"/>
<path d="M-277.295 452.603C-278.197 459.774 -278.934 455.576 -278.975 443.314C-279.016 431.052 -278.238 425.181 -277.336 430.309C-276.393 435.399 -276.393 445.432 -277.295 452.603Z" fill="white" fill-opacity="0.79"/>
<path d="M-342.754 868.768C-343.369 949.511 -343.861 885.117 -343.861 725.711C-343.861 566.305 -343.369 500.239 -342.754 578.939C-342.139 657.638 -342.139 788.024 -342.754 868.768Z" fill="white" fill-opacity="0.79"/>
<path d="M255.559 478.613C254.658 485.785 253.92 481.586 253.879 469.324C253.838 457.062 254.617 451.191 255.518 456.319C256.461 461.409 256.461 471.442 255.559 478.613Z" fill="white" fill-opacity="0.79"/>
<path d="M267.815 588.228C266.872 594.545 266.093 591.312 266.093 580.797C266.052 570.578 266.79 565.562 267.774 569.649C268.758 573.737 268.758 582.097 267.815 588.228Z" fill="white" fill-opacity="0.79"/>
<path d="M517.928 662.543C517.027 670.718 516.289 665.702 516.289 651.396C516.248 637.09 516.986 630.402 517.888 636.533C518.789 642.664 518.789 654.369 517.928 662.543Z" fill="white" fill-opacity="0.79"/>
<path d="M-101.043 707.132C-101.986 713.263 -102.765 709.064 -102.765 697.843C-102.765 686.621 -101.986 681.568 -101.043 686.696C-100.1 691.786 -100.1 701.001 -101.043 707.132Z" fill="white" fill-opacity="0.79"/>
<path d="M-71.2032 1020.15C-88.1316 1020.85 -113.955 1020.85 -128.588 1020.15C-143.262 1019.44 -129.407 1018.85 -97.8459 1018.85C-66.2846 1018.88 -54.3159 1019.44 -71.2032 1020.15Z" fill="white" fill-opacity="0.79"/>
<path d="M685.04 310.364C678.277 311.219 668.153 311.219 662.496 310.364C656.84 309.509 662.414 308.803 674.793 308.803C687.172 308.803 691.803 309.509 685.04 310.364Z" fill="white" fill-opacity="0.94"/>
<path d="M713.2 402.44C712.503 396.309 711.396 374.312 710.781 353.541C710.166 332.77 710.986 317.721 712.626 320.099C714.306 322.477 715.372 344.475 715.044 368.999C714.757 393.523 713.896 408.571 713.2 402.44Z" fill="white" fill-opacity="0.94"/>
<path fill-rule="evenodd" clip-rule="evenodd" d="M-109.855 415.446C-106.617 415.446 -103.994 418.79 -103.994 422.877C-103.994 429.491 -102.067 430.048 -86.5735 428.116C-69.4402 425.924 -69.1123 426.11 -66.448 438.335C-64.1117 449.11 -65.4643 452.157 -76.6952 461.409C-83.8273 467.28 -89.0328 473.969 -88.295 476.272C-87.5163 478.576 -88.459 479.171 -90.3445 477.573C-92.189 475.975 -96.0419 479.728 -98.8701 485.933C-101.698 492.139 -106.781 497.192 -110.142 497.192C-113.79 497.192 -115.471 499.459 -114.241 502.766C-113.093 505.813 -114.651 510.42 -117.684 512.984C-120.717 515.548 -124.406 521.382 -125.882 525.989C-127.603 531.303 -130.432 533.384 -133.711 531.674C-136.539 530.188 -142.523 528.627 -147.032 528.182C-151.541 527.736 -152.934 528.107 -150.106 528.999C-147.278 529.891 -145.884 532.306 -147.032 534.35C-148.139 536.393 -146.294 537.248 -142.933 536.208C-139.572 535.167 -136.785 536.431 -136.744 538.994C-136.703 541.558 -139.039 548.209 -141.867 553.82C-144.696 559.431 -148.426 564.039 -150.106 564.039C-151.787 564.076 -153.139 568.683 -153.057 574.294C-153.016 579.905 -154.369 583.1 -156.131 581.391C-157.894 579.682 -159.329 575.112 -159.329 571.247C-159.329 567.383 -157.033 563.333 -154.205 562.292C-151.377 561.215 -149.122 558.279 -149.163 555.715C-149.191 552.619 -150.53 552.928 -153.18 556.644C-155.353 559.691 -157.197 560.954 -157.197 559.431C-157.238 557.908 -157.279 552.483 -157.279 547.355C-157.279 542.264 -157.156 537.657 -156.992 537.136C-156.828 536.616 -156.009 530.374 -155.189 523.202C-154.328 516.031 -152.565 503.509 -151.254 495.334C-149.901 487.16 -147.811 472.928 -146.622 463.75C-144.983 451.563 -143.384 448.553 -140.638 452.603C-138.588 455.65 -137.277 456.282 -137.687 454.015C-138.096 451.711 -133.342 442.087 -127.07 432.649C-120.84 423.174 -113.093 415.446 -109.855 415.446ZM-230.567 437.74C-227.206 437.74 -226.673 489.501 -228.518 630.959C-230.772 801.252 -230.321 824.179 -224.911 824.179C-220.607 824.179 -218.762 828.117 -218.762 837.184C-218.762 844.615 -220.525 849.409 -222.861 848.331C-225.362 847.179 -226.14 851.155 -224.829 858.549C-223.066 868.545 -223.435 869.325 -226.919 863.194C-230.731 856.543 -231.059 856.803 -230.075 865.906C-229.501 871.48 -230.403 876.088 -232.084 876.125C-233.764 876.162 -235.158 777.546 -235.158 656.97C-235.158 497.675 -233.887 437.74 -230.567 437.74ZM-185.356 592.278C-180.069 592.761 -175.15 593.319 -174.412 593.504C-173.675 593.653 -175.97 596.328 -179.536 599.375C-183.061 602.422 -185.807 607.884 -185.643 611.452C-185.479 615.019 -184.537 615.873 -183.594 613.309C-182.651 610.746 -179.085 608.665 -175.724 608.665C-172.363 608.665 -168.633 610.337 -167.526 612.381C-166.379 614.424 -166.379 620.258 -167.526 625.386C-168.893 631.579 -171.625 634.056 -175.724 632.817C-179.085 631.814 -181.872 632.631 -181.872 634.675C-181.872 636.719 -183.717 638.391 -185.971 638.391C-188.226 638.391 -189.127 635.864 -188.021 632.817C-186.873 629.77 -187.816 628.098 -190.07 629.101C-192.325 630.105 -194.169 634.303 -194.169 638.391C-194.169 642.478 -192.611 645.822 -190.767 645.822C-188.882 645.822 -185.93 644.559 -184.209 643.036C-182.487 641.512 -178.511 639.84 -175.314 639.32C-172.158 638.8 -169.576 640.063 -169.576 642.107C-169.576 644.15 -170.969 645.822 -172.65 645.822C-174.33 645.822 -176.216 648.758 -176.79 652.325C-177.405 655.892 -177.651 662.172 -177.405 666.259C-177.159 670.346 -176.872 677.852 -176.831 682.98C-176.79 688.07 -175.068 705.646 -173.06 721.995C-171.01 738.345 -168.633 755.066 -167.731 759.153C-166.83 763.24 -165.764 766.584 -165.354 766.584C-164.903 766.584 -163.878 772.009 -162.977 778.661C-162.116 785.312 -163.223 790.737 -165.477 790.737C-167.731 790.737 -169.576 784.903 -169.576 777.732C-169.576 770.56 -171.42 763.872 -173.675 762.869C-176.339 761.68 -177.774 781.447 -177.774 818.605C-177.774 870.254 -177.036 876.385 -170.601 878.057C-166.666 879.097 -161.05 877.834 -158.14 875.27C-155.189 872.706 -152.729 866.427 -152.647 861.336C-152.483 853.31 -151.951 853.682 -148.713 864.123C-146.663 870.774 -142.687 877.351 -139.859 878.726C-137.031 880.101 -128.3 881.067 -120.389 880.881C-109.035 880.584 -107.724 881.178 -114.241 883.668C-122.07 886.678 -121.988 886.826 -113.216 887.086C-107.97 887.235 -101.329 891.359 -91.6971 905.925L-107.068 903.733C-115.512 902.544 -131.907 901.28 -143.507 900.946C-162.157 900.426 -164.411 899.497 -163.1 892.92C-161.829 886.38 -163.509 885.674 -176.872 886.9C-185.274 887.644 -193.513 890.579 -195.194 893.403C-196.874 896.19 -201.506 898.568 -205.441 898.642C-209.376 898.754 -217.205 895.632 -222.861 891.731C-230.239 886.64 -231.223 884.783 -226.345 885.08C-222.615 885.303 -220.279 886.752 -221.222 888.275C-222.123 889.799 -220.074 891.917 -216.713 892.92C-212.04 894.332 -211.056 892.548 -212.614 885.488C-213.926 879.506 -212.819 876.236 -209.54 876.311C-206.712 876.348 -202.121 872.186 -199.293 867.021C-196.464 861.856 -194.169 855.094 -194.169 852.047C-194.169 849 -191.382 843.946 -188.021 840.899C-184.66 837.853 -181.872 832.799 -181.872 829.752C-181.872 826.705 -184.66 824.179 -188.021 824.179C-191.382 824.179 -194.169 821.652 -194.169 818.605C-194.169 815.558 -196.956 813.031 -200.317 813.031C-203.678 813.031 -206.466 811.359 -206.466 809.316C-206.466 807.272 -207.859 802.776 -209.54 799.283C-212.204 793.821 -210.729 793.301 -198.268 795.307C-190.357 796.608 -186.217 796.942 -189.045 796.05C-191.874 795.159 -194.046 789.845 -193.882 784.234C-193.636 775.242 -193.185 774.908 -190.193 781.447C-187.611 787.132 -186.709 785.163 -186.381 773.087C-186.094 761.605 -187.324 758.038 -190.931 760.082C-194.415 762.014 -195.235 760.639 -193.677 755.437C-191.792 749.157 -193.226 748.154 -203.064 748.935C-211.097 749.566 -214.663 748.154 -214.663 744.29C-214.663 741.206 -211.015 738.716 -206.466 738.716C-198.965 738.716 -198.186 735.929 -197.243 706.203C-196.3 676.143 -195.604 673.765 -188.021 674.619C-181.176 675.363 -180.643 674.619 -184.947 669.975C-188.144 666.482 -188.554 663.695 -185.971 662.543C-183.717 661.54 -182.036 657.75 -182.2 654.183C-182.364 650.616 -183.307 649.761 -184.25 652.325C-185.193 654.889 -188.759 656.97 -192.12 656.97C-195.481 656.97 -199.17 654.443 -200.317 651.396C-201.424 648.349 -204.211 645.822 -206.466 645.822C-208.72 645.822 -211.22 650.43 -211.999 656.041C-213.188 664.401 -213.516 663.881 -213.967 653.254C-214.295 646.082 -213.188 638.391 -211.507 636.161C-209.868 633.895 -204.375 630.142 -199.293 627.801C-191.177 624.048 -190.357 621.558 -192.53 607.439C-194.907 592.241 -194.497 591.424 -185.356 592.278ZM-153.836 801.884C-151.213 801.884 -148.876 803.965 -148.59 806.529C-148.344 809.093 -148.344 812.437 -148.59 813.96C-148.876 815.484 -147.237 816.747 -144.983 816.747C-142.728 816.747 -141.785 818.419 -142.933 820.463C-144.245 822.878 -148.221 822.655 -154.205 819.831C-159.534 817.342 -161.255 814.963 -158.304 814.257C-155.435 813.589 -154.369 810.579 -155.886 807.458C-157.402 804.299 -156.5 801.884 -153.836 801.884ZM-149.081 827.894C-145.556 832.836 -145.105 832.836 -145.105 827.894C-145.105 823.287 -144.204 823.175 -139.941 827.225C-137.072 829.901 -134.202 835.735 -133.506 840.231C-132.85 844.69 -130.104 849.483 -127.357 850.895C-124.652 852.344 -123.832 854.425 -125.513 855.54C-127.193 856.691 -132.727 855.688 -137.809 853.347C-142.892 851.006 -148.385 847.253 -150.024 844.987C-151.705 842.757 -153.057 836.701 -153.057 831.61C-153.057 824.253 -152.238 823.473 -149.081 827.894ZM338.685 824.179H375.575V861.336C375.575 881.773 374.181 898.456 372.501 898.382C370.82 898.308 366.066 904.587 361.967 912.316C356.515 922.646 355.286 930.301 357.376 941.225C358.974 949.4 361.598 957.76 363.237 959.804C364.918 961.847 366.066 966.455 365.779 970.022C365.533 973.589 363.032 976.525 360.204 976.525C357.376 976.525 355.081 977.788 355.081 979.311C355.122 980.835 351.433 984.179 346.883 986.743C338.767 991.35 338.685 990.496 338.685 907.783V824.179ZM-126.251 864.123C-125.267 866.687 -122.644 867.913 -120.389 866.91C-118.135 865.906 -116.29 867.579 -116.29 870.625C-116.29 873.672 -118.586 876.831 -121.414 877.611C-124.488 878.429 -126.824 875.122 -127.275 869.251C-127.644 863.863 -127.193 861.559 -126.251 864.123Z" fill="white" fill-opacity="0.98"/>
<path d="M107.099 388.061C125.134 382.524 151.899 376.579 166.532 374.87C181.165 373.198 199.159 371.6 206.496 371.34C213.833 371.08 222.605 371.674 225.966 372.714C229.327 373.718 232.114 377.917 232.114 382.004C232.114 386.091 228.425 392.78 223.917 396.867C217.809 402.403 210.267 404.298 194.2 404.298C182.354 404.298 159.318 407.643 142.964 411.73C126.609 415.817 101.729 423.955 87.6289 429.788C73.5287 435.659 49.8372 448.59 34.9173 458.586C20.0384 468.581 -2.58737 487.643 -15.3759 500.908C-28.1234 514.173 -45.6666 535.948 -54.3152 549.213C-62.9229 562.478 -74.7276 585.07 -80.507 599.376C-86.2865 613.681 -93.3365 632.074 -96.1648 640.249C-99.034 648.535 -101.288 673.17 -101.206 695.985C-101.124 730.505 -99.4439 741.206 -90.3034 764.727C-84.319 780.036 -79.4413 796.348 -79.4413 800.955C-79.4004 805.563 -82.6385 810.765 -86.5734 812.511C-90.5083 814.295 -96.0418 815.149 -98.87 814.369C-101.698 813.626 -106.781 808.015 -110.142 801.884C-113.503 795.753 -119.938 777.769 -124.406 761.94C-129.12 745.293 -132.604 720.621 -132.645 703.417C-132.727 687.067 -129.98 659.051 -126.578 641.178C-123.053 622.71 -113.708 594.619 -104.895 576.152C-96.3697 558.279 -82.7204 534.424 -74.5227 523.203C-66.3249 511.944 -48.9867 491.879 -35.9933 478.613C-23.0408 465.311 -2.13654 447.29 10.447 438.52C23.0306 429.751 34.7124 422.654 36.3929 422.729C38.0735 422.803 47.2959 417.304 56.8873 410.541C66.4787 403.741 89.0635 393.634 107.099 388.061Z" fill="#FBFBFB" fill-opacity="0.99"/>
<path d="M260.806 426.593C258.511 426.593 256.708 416.077 256.708 402.441C256.708 388.804 258.511 378.288 260.806 378.288C263.102 378.288 264.905 388.804 264.905 402.441C264.905 416.077 263.102 426.593 260.806 426.593Z" fill="#FBFBFB" fill-opacity="0.99"/>
<path d="M290.359 402.924C287.408 400.62 285.113 394.117 285.236 388.506C285.4 378.994 286.588 378.288 302.82 378.325C312.411 378.362 326.675 380.257 334.586 382.561C342.497 384.865 361.844 391.702 377.624 397.759C393.405 403.853 407.259 409.909 408.366 411.321C409.473 412.696 420.417 419.644 432.59 426.704C444.805 433.801 463.947 448.776 475.137 460.035C486.327 471.256 502.927 492.176 512.068 506.482C521.208 520.787 532.07 542.524 536.21 554.786C540.883 568.609 544.654 594.694 548.425 669.975L577.117 710.848C592.898 733.329 607.49 755.474 609.539 760.082C611.916 765.321 611.793 771.229 609.211 775.874C605.481 782.674 601.013 783.305 557.975 783.305C529.283 783.305 510.838 781.856 510.838 779.59C510.838 777.509 524.815 775.465 542.563 774.945C566.829 774.239 574.617 772.716 575.641 768.442C576.379 765.396 564.451 745.293 521.208 684.838L519.118 652.548C517.929 634.75 514.814 618.029 512.15 615.39C508.297 611.526 503.378 616.208 487.966 638.391C477.35 653.7 462.02 673.728 453.864 682.831C445.748 691.935 435.87 702.376 431.935 706.055C428 709.696 424.762 716.05 424.762 720.138C424.762 724.225 419.351 732.585 412.793 738.716C406.194 744.847 396.971 749.864 392.298 749.864C387.585 749.864 378.239 747.337 371.476 744.29C364.713 741.243 358.278 735.781 357.171 732.214C356.023 728.647 355.573 716.199 356.146 704.569C357.048 685.209 355.04 679.747 332.537 639.803C319.01 615.836 301.877 587.708 294.417 577.341C286.998 566.974 280.112 557.648 279.169 556.644C278.186 555.604 274.497 557.313 270.972 560.36C266.545 564.187 264.577 572.585 264.741 587.299C264.823 599.19 263.102 608.665 260.806 608.665C258.552 608.665 256.257 597.369 255.683 583.584C254.781 561.735 253.592 558.354 246.46 557.313C241.255 556.57 230.188 562.664 216.17 574.034C203.996 583.881 182.682 604.466 168.787 619.812C154.85 635.121 132.922 661.057 120.01 677.406C105.705 695.539 96.6874 710.774 96.8514 716.422C97.0153 721.512 93.3673 730.319 88.7766 735.93C84.0629 741.763 75.1683 746.965 68.1592 748.006C61.3961 749.009 51.7227 747.931 46.6401 745.591C41.5575 743.25 36.024 739.088 34.3435 736.301C32.663 733.551 22.0468 727.086 10.7749 721.995C-0.496979 716.868 -19.8437 703.937 -32.1813 693.198C-46.2404 681.011 -54.6841 670.569 -54.7251 665.33C-54.7661 660.648 -51.2001 655.335 -46.6093 653.254C-39.6412 650.096 -34.1078 653.18 -9.71945 673.691C6.06125 686.956 22.2108 697.806 26.1457 697.732C30.0807 697.657 37.0078 695.131 41.5165 692.084C46.0253 689.037 55.2478 686.584 62.0109 686.584C68.774 686.584 76.357 685.358 78.8983 683.835C81.3986 682.348 102.713 657.713 126.281 629.102C149.809 600.49 180.018 568.275 193.421 557.499C206.824 546.76 219.162 537.991 220.842 537.991C222.523 538.028 224.9 532.641 226.048 525.989C227.319 519.004 234.246 508.451 242.525 500.908C255.601 489.055 256.831 486.045 256.79 466.537C256.749 453.495 258.306 445.915 260.806 447.03C263.061 448.033 264.823 457.657 264.7 468.395C264.536 486.417 265.643 488.683 279.046 498.121C288.747 504.933 294.308 512.365 295.729 520.416C296.918 527.067 303.64 540.852 310.69 551.071C317.699 561.289 334.832 590.532 348.768 616.096C362.664 641.624 376.231 667.968 378.895 674.62C382.297 683.017 387.216 687.439 395.045 689.111C404.636 691.155 408.366 689.334 419.925 677.035C427.385 669.046 444.313 647.495 457.512 629.102C470.71 610.709 486.163 590.644 491.901 584.513C497.599 578.382 502.394 569.166 502.476 564.076C502.599 558.948 496.451 543.082 488.786 528.776C481.162 514.471 468.538 496.078 460.791 487.903C453.003 479.728 434.804 464.865 420.335 454.87C405.866 444.874 387.585 434.322 379.674 431.423C371.763 428.525 359.794 423.806 353.031 420.982C346.268 418.158 330.569 413.885 318.191 411.507C305.812 409.092 293.27 405.264 290.359 402.924Z" fill="#FBFBFB" fill-opacity="0.99"/>
<path d="M-341.729 1017.4L-341.237 708.061C-340.991 537.917 -339.884 402.069 -338.818 406.156C-337.712 410.244 -335.621 414.963 -334.146 416.672C-332.67 418.381 -327.341 417.972 -322.259 415.743C-317.176 413.551 -305.208 411.061 -278.196 408.72L-276.802 650.802C-275.573 858.735 -274.507 894.481 -269.096 904.067C-265.694 910.198 -259.874 918.299 -256.185 922.089C-252.496 925.879 -243.97 931.527 -237.207 934.611C-229.706 938.067 -204.457 941.559 -172.65 943.529C-143.917 945.312 -106.084 949.437 -88.6228 952.632C-71.1616 955.865 -52.7167 960.881 -47.6341 963.78C-42.5515 966.715 -32.1813 980.389 -10.6622 1019.26L-99.3209 1019.55C-163.96 1019.78 -199.702 1021.63 -231.059 1026.43C-254.75 1030.03 -283.32 1033.86 -294.591 1034.94C-312.34 1036.61 -316.848 1035.57 -341.729 1017.4Z" fill="#FBFBFB" fill-opacity="0.99"/>
<path d="M755.951 647.049C755.254 444.986 755.951 412.064 761.074 410.281C764.354 409.129 775.339 408.869 785.463 409.649C798.948 410.727 806.408 413.699 822.353 430.309L820.303 1016.8L810.056 1026.76C800.342 1036.24 798.292 1036.65 771.117 1034.75C755.336 1033.64 726.767 1029.88 707.584 1026.39C680.859 1021.49 650.815 1019.96 578.469 1019.89C494.524 1019.78 480.137 1020.67 447.305 1028.03C427.016 1032.6 399.349 1039.4 385.822 1043.22C372.296 1047.01 351.105 1053.7 316.141 1066L332.537 1051.73C341.554 1043.89 357.253 1032.26 367.377 1025.87C377.542 1019.48 399.676 1007.63 416.564 999.525C433.492 991.388 463.004 979.757 482.146 973.626C501.329 967.533 536.374 958.838 560.025 954.379C583.716 949.883 625.197 944.978 652.249 943.492C684.261 941.708 705.74 938.661 713.732 934.797C720.496 931.564 731.071 924.133 737.219 918.336C743.367 912.539 750.294 901.949 752.59 894.778C755.295 886.418 756.484 798.057 755.951 647.049Z" fill="#FBFBFB" fill-opacity="0.99"/>
<path d="M486.286 255.668C485.999 211.748 485.917 173.699 486.04 171.135C486.204 167.53 517.396 166.49 627.656 166.49C760.87 166.49 770.01 166.936 785.463 173.921C797.063 179.198 804.236 185.961 809.974 197.145C817.434 211.674 818.09 221.223 818.172 316.049C818.213 372.752 817.803 419.198 817.229 419.273C816.655 419.347 810.671 416.858 803.908 413.736C797.145 410.615 786.528 408.051 780.339 408.051C774.15 408.014 765.378 409.686 760.87 411.73C755.404 414.207 751.989 414.207 750.622 411.73C749.516 409.686 741.195 408.014 715.782 408.014V365.283C715.782 325.822 715.085 321.92 706.559 314.488C697.993 306.983 694.755 306.611 660.447 308.952C640.158 310.327 606.055 313.968 584.618 317.052C563.181 320.136 532.767 326.044 516.986 330.169C501.206 334.331 487.966 337.229 487.515 336.634C487.105 336.04 486.532 299.588 486.286 255.668Z" fill="white" fill-opacity="0.99"/>
<path d="M71.1513 195.547C70.2906 5.11467 70.4955 -0.198854 78.1604 -1.3879C82.4642 -2.01957 147.923 -2.01957 223.63 -1.31358C344.628 -0.236012 362.704 0.692926 373.526 6.30372C380.289 9.83368 390.044 18.4542 404.513 38.2964L404.39 221.297C404.308 321.957 403.324 404.298 402.218 404.298C401.111 404.298 393.241 401.177 384.797 397.35C376.354 393.523 358.36 387.429 344.833 383.824C331.307 380.257 304.582 376.839 285.4 376.281C266.217 375.761 234.901 374.089 215.719 372.603C188.871 370.522 173.336 371.414 148.087 376.467C130.052 380.072 106.976 386.054 96.8513 389.77C86.7271 393.523 76.9717 395.38 75.2092 393.931C73.4467 392.482 71.6432 303.23 71.1513 195.547Z" fill="white"/>
<path fill-rule="evenodd" clip-rule="evenodd" d="M-198.678 311.479C-188.308 311.516 -160.476 313.894 -136.785 316.792C-113.093 319.691 -71.6127 326.936 -44.5601 332.919C-17.5075 338.901 18.9315 349.045 36.3928 355.473C53.854 361.902 68.1591 367.958 68.1591 368.999C68.1591 370.002 61.232 373.532 52.7883 376.802C44.3446 380.072 26.8014 388.432 13.849 395.381C0.281662 402.663 -11.892 406.862 -14.8432 405.264C-18.2316 403.456 -18.9147 404.075 -16.8926 407.122C-15.0072 409.946 -17.3845 413.848 -23.041 417.155C-28.1236 420.128 -34.1079 421.539 -36.3623 420.276C-38.6167 419.013 -39.0676 419.496 -37.346 421.354C-35.6245 423.212 -39.3135 429.38 -45.5438 435.028C-51.7741 440.713 -59.1521 445.283 -61.9803 445.246C-64.8085 445.209 -67.1039 440.973 -67.1039 435.882C-67.1039 427.076 -68.0466 426.704 -85.5488 428.451C-101.944 430.086 -103.994 429.491 -103.994 422.877C-103.994 418.158 -106.371 415.78 -110.511 416.375C-114.118 416.895 -122.439 426.481 -128.956 437.74C-135.514 448.962 -140.843 455.65 -140.761 452.603C-140.72 449.556 -141.662 447.847 -142.851 448.887C-144.081 449.891 -146.991 464.122 -149.327 480.471C-151.705 496.821 -154.328 516.031 -155.148 523.203C-156.009 530.374 -156.828 536.616 -156.992 537.137C-157.156 537.657 -157.279 542.227 -157.279 547.355C-157.279 552.446 -157.238 557.908 -157.197 559.431C-157.197 560.955 -155.517 559.691 -153.549 556.644C-151.008 552.706 -150.024 554.898 -150.106 564.076C-150.229 571.247 -150.926 574.146 -151.746 570.578C-152.524 567.011 -154.574 564.076 -156.254 564.113C-157.935 564.15 -158.878 570.839 -158.304 578.976C-157.648 588.265 -159.575 595.883 -163.428 599.376C-167.403 602.98 -167.936 605.284 -164.985 605.878C-162.321 606.398 -163.55 609.185 -167.813 612.381C-172.199 615.651 -174.085 616.059 -172.404 613.31C-170.724 610.523 -172.035 608.665 -175.724 608.665C-179.085 608.665 -182.651 610.746 -183.594 613.31C-184.537 615.873 -185.479 615.019 -185.643 611.452C-185.807 607.885 -183.061 602.422 -179.536 599.376C-175.97 596.329 -173.675 593.653 -174.412 593.505C-175.15 593.319 -179.7 592.91 -184.578 592.576C-192.571 592.018 -193.226 593.43 -191.751 607.736C-190.316 621.187 -191.423 624.16 -199.293 627.801C-204.375 630.142 -209.868 633.895 -211.507 636.161C-213.188 638.391 -214.295 646.083 -213.967 653.254C-213.516 663.881 -213.188 664.401 -211.999 656.041C-211.22 650.43 -208.72 645.822 -206.466 645.822C-204.211 645.822 -201.465 648.349 -200.317 651.396C-199.17 654.443 -195.481 656.97 -192.12 656.97C-188.759 656.97 -185.193 654.889 -184.25 652.325C-183.307 649.761 -182.364 650.616 -182.2 654.183C-182.036 657.75 -183.717 661.54 -185.971 662.543C-188.554 663.695 -188.144 666.482 -184.947 669.975C-180.643 674.62 -181.176 675.363 -188.021 674.62C-195.604 673.765 -196.3 676.143 -197.243 706.203C-198.186 735.93 -198.965 738.716 -206.466 738.716C-211.015 738.716 -214.663 741.206 -214.663 744.29C-214.663 748.154 -211.097 749.566 -203.064 748.935C-193.226 748.154 -191.792 749.158 -193.677 755.437C-195.235 760.639 -194.415 762.014 -190.931 760.082C-187.324 758.038 -186.094 761.605 -186.381 773.087C-186.709 785.163 -187.611 787.133 -190.193 781.448C-193.185 774.908 -193.636 775.242 -193.882 784.234C-194.046 789.845 -191.874 795.159 -189.045 796.05C-186.217 796.942 -190.357 796.608 -198.268 795.307C-210.729 793.301 -212.204 793.821 -209.54 799.283C-207.859 802.776 -206.466 807.272 -206.466 809.316C-206.466 811.359 -203.678 813.031 -200.317 813.031C-196.956 813.031 -194.169 815.521 -194.169 818.605C-194.169 821.652 -191.382 824.179 -188.021 824.179C-184.66 824.179 -181.872 826.668 -181.872 829.752C-181.872 832.799 -184.66 837.815 -188.021 840.9C-191.382 843.947 -194.169 848.963 -194.169 852.047C-194.169 855.094 -196.464 861.856 -199.293 867.021C-202.121 872.186 -206.712 876.348 -209.54 876.311C-213.024 876.236 -213.844 879.506 -212.163 886.418C-209.704 896.487 -209.827 896.524 -219.336 890.616C-226.345 886.232 -229.214 880.621 -229.829 870.18C-230.485 858.549 -229.87 857.212 -226.673 863.194C-223.517 869.102 -223.148 868.173 -224.829 858.549C-226.14 851.155 -225.362 847.179 -222.861 848.331C-220.525 849.409 -218.762 844.615 -218.762 837.184C-218.762 828.117 -220.607 824.179 -224.911 824.179C-230.321 824.179 -230.69 801.475 -227.985 630.959C-225.935 502.766 -226.304 437.74 -229.01 437.74C-231.633 437.703 -232.576 417.266 -231.592 381.075C-230.444 337.006 -228.682 322.961 -223.804 317.907C-219.541 313.448 -211.589 311.442 -198.678 311.479ZM670.694 311.888C690.697 311.665 699.14 313.188 704.633 318.019C711.519 324.038 711.97 340.536 711.97 601.233C711.97 873.821 711.847 878.206 703.608 888.275C696.23 897.342 692.664 898.494 671.719 898.494C658.766 898.494 631.55 900.315 611.26 902.544C590.971 904.773 558.713 909.827 539.53 913.766C520.347 917.741 492.68 924.504 478.047 928.814C463.414 933.162 434.353 943.975 413.49 952.892C392.626 961.81 374.591 967.83 373.402 966.306C372.214 964.783 371.312 965.6 371.353 968.164C371.435 970.728 369.632 972.809 367.377 972.809C365.123 972.809 364.221 971.137 365.328 969.093C366.434 967.049 365.779 963.297 363.811 960.733C361.844 958.169 358.974 949.4 357.376 941.225C355.285 930.301 356.515 922.646 361.967 912.316C366.065 904.588 370.82 898.308 372.501 898.382C374.181 898.457 375.575 881.773 375.575 824.179L518.011 824.327C647.003 824.476 661.021 823.919 666.595 818.196C669.956 814.741 672.744 807.384 672.744 801.921C672.744 796.422 667.005 783.714 659.996 773.682C652.987 763.649 637.206 741.206 602.612 692.269L600.029 642.107C598.636 614.499 594.414 581.057 590.643 567.792C586.872 554.489 576.789 530.262 568.222 513.913C559.656 497.564 542.563 472.482 530.185 458.177C517.847 443.871 497.803 424.884 485.712 415.966C473.62 407.085 452.142 393.708 438.042 386.24C423.901 378.808 412.301 371.86 412.26 370.857C412.219 369.816 428.368 362.756 448.166 355.102C468.005 347.485 503.583 336.857 527.233 331.544C550.884 326.23 586.872 319.728 607.161 317.052C627.451 314.377 656.061 312.073 670.694 311.888ZM-187.857 627.244C-187.406 627.244 -187.693 629.733 -188.554 632.817C-189.373 635.864 -188.226 638.391 -185.971 638.391C-183.717 638.391 -182.077 636.57 -182.364 634.378C-182.61 632.148 -180.766 630.885 -178.265 631.591C-175.724 632.26 -173.675 634.489 -173.675 636.533C-173.675 638.577 -175.355 640.249 -177.446 640.249C-179.495 640.249 -182.569 641.512 -184.25 643.036C-185.971 644.559 -188.882 645.822 -190.767 645.822C-192.612 645.822 -194.456 642.738 -194.866 639.023C-195.235 635.27 -194.005 631.071 -192.12 629.733C-190.234 628.358 -188.308 627.244 -187.857 627.244ZM-173.347 762.237C-169.166 762.274 -167.813 766.25 -168.551 776.506C-169.125 784.346 -167.731 790.737 -165.477 790.737C-163.141 790.737 -162.567 787.17 -164.165 782.376C-166.174 776.394 -165.6 774.796 -162.116 776.803C-159.452 778.326 -157.32 782.525 -157.361 786.092C-157.402 789.659 -155.066 794.713 -152.238 797.314C-148.098 801.03 -148.098 801.996 -152.156 801.958C-154.984 801.921 -156.336 804.374 -155.23 807.458C-154.082 810.505 -155.476 813.069 -158.304 813.143C-161.132 813.217 -159.739 815.67 -155.23 818.605C-150.721 821.541 -145.638 823.175 -143.958 822.209C-142.277 821.243 -139.49 822.544 -137.81 825.07C-135.787 828.117 -136.471 828.737 -139.859 826.928C-142.851 825.331 -145.024 826.111 -145.065 828.823C-145.092 831.92 -146.431 831.61 -149.081 827.894C-152.238 823.473 -153.057 824.253 -153.057 831.61C-153.057 836.701 -151.705 842.758 -150.024 845.024C-148.385 847.291 -141.048 851.898 -133.711 855.242C-126.374 858.587 -120.43 863.417 -120.471 865.981C-120.471 869.127 -121.906 868.817 -124.775 865.052C-128.259 860.482 -128.792 860.779 -127.644 866.91C-126.784 871.443 -123.504 873.97 -119.201 873.412C-115.348 872.892 -112.192 874.156 -112.192 876.199C-112.192 878.243 -115.43 880.51 -119.365 881.216C-123.299 881.959 -130.677 881.104 -135.76 879.358C-141.212 877.5 -146.499 871.294 -148.713 864.123C-151.951 853.682 -152.483 853.31 -152.647 861.336C-152.729 866.427 -155.189 872.706 -158.14 875.27C-161.05 877.834 -166.666 879.098 -170.601 878.057C-176.995 876.422 -177.856 869.994 -178.47 819.237C-179.003 772.27 -178.101 762.237 -173.347 762.237ZM309.993 824.179H338.767L336.636 992.317L309.624 1011.82L309.993 824.179ZM-162.444 884.262C-161.952 883.928 -162.403 886.12 -163.468 889.204C-164.575 892.251 -162.239 896.562 -158.304 898.791C-151.459 902.581 -151.459 902.655 -158.304 900.649C-162.239 899.46 -172.855 898.494 -181.872 898.494C-194.62 898.494 -197.776 897.268 -196.219 892.92C-194.989 889.613 -187.857 886.826 -178.798 886.12C-170.314 885.451 -162.977 884.597 -162.444 884.262Z" fill="#FDFEFC"/>
<path d="M308.968 784.531C322.371 783.565 326.347 781.819 326.265 776.803C326.224 773.236 326.757 771.489 327.454 772.938C328.151 774.387 328.192 778.14 327.536 781.299C326.675 785.535 321.839 786.835 291.548 785.721L308.968 784.531Z" fill="white" fill-opacity="0.22"/>
<path d="M14.8737 920.9C13.726 920.9 3.60175 912.465 -7.67016 902.209C-18.9421 891.954 -26.648 883.556 -24.8035 883.593C-22.918 883.593 -12.7938 892.028 -2.25964 902.247C8.31546 912.502 15.9804 920.9 14.8737 920.9Z" fill="white" fill-opacity="0.22"/>
<path d="M153.211 1013.68C152.473 1035.12 151.858 1018.4 151.858 976.525C151.858 934.648 152.473 917.072 153.211 937.509C153.908 957.946 153.908 992.242 153.211 1013.68Z" fill="white" fill-opacity="0.22"/>
<path d="M116.28 1008.11C115.542 1024.46 114.927 1009.41 114.927 974.667C114.927 939.924 115.542 926.548 116.321 944.941C117.059 963.334 117.059 991.759 116.28 1008.11Z" fill="white" fill-opacity="0.22"/>
<path d="M137.84 771.08C132.225 771.935 121.158 771.935 113.247 771.118C105.336 770.3 109.968 769.631 123.494 769.594C137.02 769.557 143.497 770.263 137.84 771.08Z" fill="white" fill-opacity="0.31"/>
<path d="M221.867 771.155C212.85 771.935 199.036 771.935 191.126 771.155C183.215 770.337 190.593 769.706 207.521 769.706C224.449 769.706 230.885 770.337 221.867 771.155Z" fill="white" fill-opacity="0.31"/>
<path d="M385.822 771.155C376.805 771.935 363.893 771.935 357.13 771.118C350.367 770.3 357.745 769.631 373.526 769.668C389.306 769.668 394.84 770.337 385.822 771.155Z" fill="white" fill-opacity="0.31"/>
<path d="M270.972 904.067L268.963 875.456C267.856 859.701 268.389 847.997 270.111 849.446C271.832 850.858 272.734 863.751 270.972 904.067Z" fill="white" fill-opacity="0.31"/>
<path d="M393.733 785.906C389.101 786.798 379.879 786.835 373.239 785.981C366.639 785.126 370.41 784.383 381.723 784.383C392.995 784.346 398.406 785.052 393.733 785.906Z" fill="white" fill-opacity="0.49"/>
<path d="M50.7389 954.267C50.1651 954.304 41.3935 946.353 31.2692 936.617L12.8243 918.93L32.3349 935.651C43.074 944.829 51.8456 952.781 51.8046 953.301C51.8046 953.821 51.3127 954.267 50.7389 954.267Z" fill="white" fill-opacity="0.49"/>
<path d="M267.857 738.716C266.955 745.888 266.217 741.689 266.176 729.427C266.135 717.165 266.914 711.294 267.816 716.422C268.758 721.512 268.758 731.545 267.857 738.716Z" fill="white" fill-opacity="0.79"/>
<path d="M225.966 774.833C219.203 775.688 209.038 775.688 203.422 774.833C197.766 773.979 203.299 773.273 215.719 773.273C228.138 773.273 232.729 773.979 225.966 774.833Z" fill="white" fill-opacity="0.79"/>
<path d="M401.521 780.816C399.635 778.438 390.741 775.725 381.723 774.796L365.328 773.161L383.445 773.57C395.783 773.867 402.095 775.799 403.242 779.59C404.363 783.38 403.789 783.788 401.521 780.816Z" fill="white" fill-opacity="0.79"/>
<path d="M267.857 883.594C266.955 890.765 266.217 886.566 266.176 874.304C266.135 862.042 266.914 856.208 267.816 861.299C268.758 866.427 268.758 876.459 267.857 883.594Z" fill="white" fill-opacity="0.79"/>
<path d="M120.42 1006.21C119.682 1029.73 119.108 1012.16 119.108 967.198C119.108 922.237 119.682 903.027 120.42 924.467C121.117 945.944 121.117 982.73 120.42 1006.21Z" fill="white" fill-opacity="0.79"/>
<path d="M266.832 970.914L264.864 946.018C263.758 932.307 264.291 922.275 266.012 923.724C267.775 925.173 268.676 936.357 266.832 970.914Z" fill="white" fill-opacity="0.79"/>
<path d="M238.263 302.115L246.05 293.755C250.313 289.147 255.847 285.357 258.347 285.283C260.806 285.245 266.75 288.998 271.504 293.643C276.259 298.325 285.031 308.803 290.974 316.978C296.958 325.153 301.877 333.513 301.918 335.557C301.959 337.6 294.581 328.831 285.523 316.049C276.423 303.267 266.217 291.562 262.856 290.039C259.003 288.292 253.223 290.076 238.263 302.115Z" fill="white" fill-opacity="0.86"/>
<path d="M230.229 318.836C236.377 309.621 244.247 299.142 247.731 295.464C251.256 291.822 257.035 289.333 260.56 289.964C264.085 290.596 274.087 300.257 282.817 311.479C293.065 324.632 297.778 334.145 296.139 338.344C294.622 342.171 289.417 344.846 283.35 344.846C277.694 344.846 273.062 342.765 273.062 340.201C273.021 337.638 270.685 339.644 267.938 344.623C265.151 349.602 261.011 353.69 258.757 353.69C256.503 353.727 253.756 348.934 252.609 343.137C250.723 333.327 250.108 333.03 244.411 338.864C241.05 342.319 235.024 345.106 231.09 344.995C227.155 344.92 222.851 342.765 221.539 340.201C220.227 337.638 224.121 328.014 230.229 318.836Z" fill="white" fill-opacity="0.94"/>
<path d="M256.011 653.886C255.642 641.958 256.871 631.071 258.757 629.733C260.642 628.358 262.528 627.244 262.979 627.244C263.389 627.244 264.004 638.948 264.331 653.254C264.7 669.529 263.389 678.558 260.806 677.406C258.552 676.403 256.421 665.776 256.011 653.886Z" fill="#FBFBFB" fill-opacity="0.99"/>
<path d="M260.806 753.579C258.47 753.579 256.708 742.432 256.708 727.569C256.708 712.706 258.47 701.559 260.806 701.559C263.143 701.559 264.905 712.706 264.905 727.569C264.905 742.432 263.143 753.579 260.806 753.579Z" fill="#FBFBFB" fill-opacity="0.99"/>
<path d="M19.6285 796.311C18.3578 781.485 19.5055 776.803 25.4899 773.05C29.5887 770.449 34.8763 768.963 37.2126 769.706C39.59 770.449 42.6642 773.421 44.0988 776.245C45.5334 779.107 48.7715 789.808 51.3128 800.026C54.7558 813.775 60.0434 821.986 71.5612 831.61C82.4643 840.714 95.6626 846.733 115.583 851.712C131.2 855.614 145.341 860.63 146.981 862.86C148.661 865.089 150.096 908.712 150.178 959.804C150.301 1010.9 148.948 1053.85 147.186 1055.22C145.423 1056.6 139.357 1056.49 123.494 1052.18L121.24 966.975C120.01 920.119 118.616 881.364 118.165 880.844C117.715 880.324 107.672 877.5 95.8266 874.564C83.9808 871.592 67.9542 865.312 60.1664 860.63C52.3785 855.911 40.4508 843.686 33.6056 833.468C25.5308 821.318 20.6532 808.461 19.6285 796.311Z" fill="#FBFBFB" fill-opacity="0.99"/>
<path d="M256.011 802.07C255.437 783.677 256.626 779.33 263.184 776.171C267.529 774.09 278.432 772.53 287.449 772.715C296.467 772.901 309.378 774.239 316.141 775.725C324.667 777.583 326.552 779.144 322.29 780.779C318.928 782.042 305.074 783.565 266.955 785.163L265.93 806.529C265.315 819.274 263.266 827.151 260.806 826.037C258.552 825.033 256.38 814.22 256.011 802.07Z" fill="#FBFBFB" fill-opacity="0.99"/>
<path d="M127.593 783.305C112.55 783.305 100.95 781.67 100.95 779.59C100.95 777.509 112.55 775.874 127.593 775.874C142.636 775.874 154.236 777.509 154.236 779.59C154.236 781.67 142.636 783.305 127.593 783.305Z" fill="#FBFBFB" fill-opacity="0.99"/>
<path d="M209.57 783.305C194.937 783.305 181.821 781.633 180.468 779.59C178.911 777.249 188.789 775.874 207.111 775.874C223.794 775.874 236.213 777.472 236.213 779.59C236.213 781.67 224.613 783.305 209.57 783.305Z" fill="#FBFBFB" fill-opacity="0.99"/>
<path d="M373.526 783.305C358.483 783.305 346.883 781.67 346.883 779.59C346.883 777.509 358.483 775.874 373.526 775.874C388.568 775.874 400.168 777.509 400.168 779.59C400.168 781.67 388.568 783.305 373.526 783.305Z" fill="#FBFBFB" fill-opacity="0.99"/>
<path d="M451.404 783.305C436.361 783.305 424.762 781.67 424.762 779.59C424.762 777.509 436.361 775.874 451.404 775.874C466.447 775.874 478.047 777.509 478.047 779.59C478.047 781.67 466.447 783.305 451.404 783.305Z" fill="#FBFBFB" fill-opacity="0.99"/>
<path d="M-81.9827 858.549C-83.8272 851.267 -82.5975 847.068 -77.7199 843.947C-73.9489 841.531 -67.9645 840.677 -64.4395 842.089C-60.8735 843.463 -52.4708 852.976 -45.7076 863.194C-38.9855 873.412 -13.5314 899.348 10.8569 920.788C45.1645 950.997 57.707 964.82 66.4786 982.098C72.7089 994.36 78.7343 1012.75 79.882 1022.97C81.7674 1040.25 81.3576 1041.33 74.0206 1038.35C69.6758 1036.57 63.3225 1034.42 59.9614 1033.56C56.6003 1032.71 51.3538 1024.09 48.3206 1014.46C45.3284 1004.84 37.7455 990.273 31.5562 982.098C25.3259 973.924 8.80743 958.02 -5.12875 946.799C-19.1059 935.577 -41.5268 913.394 -54.9711 897.565C-68.4154 881.736 -80.5481 864.16 -81.9827 858.549Z" fill="#FBFBFB" fill-opacity="0.99"/>
<path d="M260.806 900.352C258.552 899.348 256.912 887.532 257.117 874.118C257.404 858.921 259.085 850.598 261.626 852.047C263.881 853.31 265.561 865.126 265.315 878.28C265.069 892.883 263.307 901.504 260.806 900.352Z" fill="#FBFBFB" fill-opacity="0.99"/>
<path d="M260.806 976.525C258.47 976.525 256.708 965.377 256.708 950.514C256.708 935.651 258.47 924.504 260.806 924.504C263.143 924.504 264.905 935.651 264.905 950.514C264.905 965.377 263.143 976.525 260.806 976.525Z" fill="#FBFBFB" fill-opacity="0.99"/>
<path d="M256.871 1026.87C255.847 1017.06 256.421 1006.32 258.142 1003.02C260.847 997.704 261.708 997.63 265.069 1002.53C267.16 1005.58 268.922 1016.88 268.922 1027.62C269.004 1041.4 267.488 1046.75 263.881 1045.9C261.052 1045.23 257.937 1036.76 256.871 1026.87Z" fill="#FBFBFB" fill-opacity="0.99"/>
<path d="M-90.3443 476.755C-94.4022 483.555 -94.8941 483.184 -95.7139 472.742C-96.3287 464.642 -94.8121 461.372 -90.5493 461.595C-87.2292 461.744 -84.8108 463.565 -85.1797 465.608C-85.5486 467.652 -87.885 472.668 -90.3443 476.755Z" fill="#FDFEFC"/>
<path d="M-138.834 525.06C-142.195 524.057 -144.982 521.53 -144.982 519.487C-144.982 517.443 -141.293 515.771 -136.785 515.771C-132.235 515.771 -128.587 518.26 -128.587 521.345C-128.587 524.429 -129.53 526.918 -130.636 526.918C-131.784 526.918 -135.473 526.101 -138.834 525.06Z" fill="#FDFEFC"/>
<path d="M-192.529 706.203C-192.734 702.636 -191.013 698.512 -188.676 697.025C-186.34 695.539 -183.676 696.394 -182.774 698.883C-181.872 701.373 -182.241 705.497 -183.553 708.061C-184.864 710.625 -187.365 712.706 -189.045 712.706C-190.726 712.706 -192.283 709.771 -192.529 706.203Z" fill="#FDFEFC"/>
<path d="M227.974 334.256C227.934 330.466 233.508 320.434 240.312 311.962C247.075 303.49 255.396 296.541 258.798 296.541C262.159 296.541 270.48 303.638 277.325 312.333C284.129 321.028 289.663 331.061 289.622 334.628C289.499 340.053 287.818 340.536 279.251 337.415C273.595 335.371 268.062 333.699 266.955 333.699C265.848 333.699 264.905 336.226 264.905 339.273C264.905 342.319 263.061 344.846 260.807 344.846C258.552 344.846 255.929 341.093 254.945 336.486C253.224 328.311 252.937 328.274 242.648 334.628C236.869 338.195 231.172 341.13 230.065 341.13C228.917 341.13 228.015 338.046 227.974 334.256Z" fill="#FDFEFC"/>
</g>
</svg>
